<svg xmlns="http://www.w3.org/2000/svg" viewBox="0 0 64 64">
  <defs>
    <linearGradient id="g" x1="0%" y1="0%" x2="100%" y2="100%">
      <stop offset="0%" stop-color="#ffb347" />
      <stop offset="100%" stop-color="#f7931a" />
    </linearGradient>
  </defs>
  <rect width="64" height="64" rx="14" fill="url(#g)"/>
  <path
    fill="#fff"
    d="M30 16h4l1-4h6l-1 4h5v6h-6l-1 4h5a8 8 0 0 1 0 16h-4l-1 4h-6l1-4h-5l-1 4h-6l1-4h-5v-6h6l1-4h-5a8 8 0 0 1 0-16h4l1-4h6l-1 4Zm2 10h6a3 3 0 0 0 0-6h-6l-1 6Zm-3 10h6a3 3 0 0 0 0-6h-6l-1 6Z"
  />
</svg>
